<?xml version="1.0" encoding="iso-8859-1"?>
<!-- Uploaded to: SVG Repo, www.svgrepo.com, Generator: SVG Repo Mixer Tools -->
<svg version="1.1" id="Layer_1" xmlns="http://www.w3.org/2000/svg" xmlns:xlink="http://www.w3.org/1999/xlink" 
	 viewBox="0 0 498.4 498.4" xml:space="preserve">
<g>
	<polygon style="fill:#F9BDA0;" points="329.2,426.4 169.2,426.4 202,282.4 296.4,282.4 	"/>
	<rect x="49.2" y="402.4" style="fill:#F9BDA0;" width="392" height="96"/>
</g>
<g>
	<path style="fill:#00233F;" d="M150.8,136.8c0,0,11.2,108.8,0.8,132c0,0,23.2-5.6,52-7.2l28.8-33.6l-4.8-107.2L150.8,136.8z"/>
	<path style="fill:#00233F;" d="M347.6,136.8c0,0-11.2,108.8-0.8,132c0,0-23.2-5.6-52-7.2L265.2,228l4.8-107.2L347.6,136.8z"/>
	<path style="fill:#00233F;" d="M344.4,86.4c0,61.6,25.6,76-76,76h-37.6c-42.4,0-76-33.6-76-76l0,0c0-42.4,34.4-76,76-76h37.6
		C310,10.4,344.4,44,344.4,86.4L344.4,86.4z"/>
</g>
<rect x="201.2" y="194.4" style="fill:#F9BDA0;" width="96" height="112"/>
<polygon style="fill:#EAA78C;" points="300.4,308 250,335.2 200.4,194.4 298,194.4 "/>
<path style="fill:#FCCCB9;" d="M326.8,113.6c0,74.4-37.6,141.6-76.8,141.6s-77.6-67.2-77.6-141.6S210,26.4,250,26.4
	S326.8,39.2,326.8,113.6z"/>
<g>
	<path style="fill:#F9BDA0;" d="M249.2,27.2c39.2,0,76.8,12.8,76.8,87.2S288.4,256,249.2,256"/>
	<polygon style="fill:#F9BDA0;" points="195.6,312 42.8,361.6 56.4,493.6 246,451.2 	"/>
</g>
<polyline style="fill:#FCCCB9;" points="42.8,361.6 49.2,498.4 246,451.2 "/>
<polygon style="fill:#F9BDA0;" points="302.8,312 455.6,361.6 439.6,488 250.8,451.2 "/>
<polyline style="fill:#EAA78C;" points="455.6,361.6 441.2,498.4 252.4,451.2 "/>
<g>
	<path style="fill:#00233F;" d="M286,12.8c0,0-32,128.8-140,136c0,0-12-78.4,19.2-112c32-33.6,88.8-28,88.8-28L286,12.8z"/>
	<path style="fill:#00233F;" d="M231.6,12.8c0,0,22.4,117.6,119.2,129.6c0,0,14.4-69.6-12-101.6c-27.2-32-78.4-29.6-78.4-29.6
		L231.6,12.8z"/>
</g>
<path style="fill:#FFFEEE;" d="M106.8,495.2c0,0-12.8-36.8-6.4-57.6s17.6-7.2,46.4-26.4C175.6,392,249.2,444,249.2,444v54.4H110.8
	L106.8,495.2z"/>
<path style="fill:#EAE7C7;" d="M391.6,495.2c0,0,12.8-36.8,6.4-57.6c-7.2-20.8-17.6-7.2-46.4-26.4c-28.8-18.4-102.4,33.6-102.4,33.6
	v53.6h138.4L391.6,495.2z"/>
<path style="fill:#F283B1;" d="M155.6,388.8c0,6.4-2.4,14.4-5.6,14.4s-4.8-8-4.8-14.4s2.4-7.2,5.6-7.2S155.6,381.6,155.6,388.8z"/>
<path style="fill:#EF6597;" d="M150,380.8c3.2,0,5.6,0.8,5.6,7.2c0,6.4-2.4,14.4-5.6,14.4"/>
<path style="fill:#F283B1;" d="M145.2,430.4c0-6.4,2.4-14.4,5.6-14.4s5.6,7.2,5.6,14.4c0,6.4-2.4,7.2-5.6,7.2
	S145.2,436.8,145.2,430.4z"/>
<path style="fill:#EF6597;" d="M150,437.6c-3.2,0-5.6-0.8-5.6-7.2c0-6.4,2.4-14.4,5.6-14.4"/>
<path style="fill:#F283B1;" d="M170.8,414.4c-6.4,0-14.4-2.4-14.4-5.6s7.2-5.6,14.4-5.6c6.4,0,7.2,2.4,7.2,5.6
	C178.8,412,178,414.4,170.8,414.4z"/>
<path style="fill:#EF6597;" d="M178.8,409.6c0,3.2-0.8,5.6-7.2,5.6s-14.4-2.4-14.4-5.6"/>
<path style="fill:#F283B1;" d="M129.2,404c6.4,0,14.4,2.4,14.4,5.6s-7.2,5.6-14.4,5.6c-7.2,0-7.2-2.4-7.2-5.6S122.8,404,129.2,404z"
	/>
<path style="fill:#EF6597;" d="M122,409.6c0-3.2,0.8-5.6,7.2-5.6c6.4,0,14.4,2.4,14.4,5.6"/>
<path style="fill:#F283B1;" d="M168.4,398.4c-4.8,4.8-11.2,8-13.6,6.4c-1.6-2.4,1.6-8.8,6.4-13.6c4.8-4.8,7.2-4,8.8-1.6
	C172.4,391.2,173.2,393.6,168.4,398.4z"/>
<path style="fill:#EF6597;" d="M170,389.6c2.4,2.4,3.2,4-1.6,8.8c-4.8,4.8-11.2,8-13.6,6.4"/>
<path style="fill:#F283B1;" d="M131.6,420.8c4.8-4.8,12-8,13.6-6.4c2.4,2.4-1.6,8.8-6.4,13.6c-4.8,4.8-7.2,4-8.8,1.6
	C128.4,427.2,126.8,425.6,131.6,420.8z"/>
<path style="fill:#EF6597;" d="M130,429.6c-2.4-2.4-3.2-4,1.6-8.8c4.8-4.8,12-8,13.6-6.4"/>
<path style="fill:#F283B1;" d="M161.2,428c-4.8-4.8-8-11.2-6.4-13.6c2.4-2.4,8.8,1.6,13.6,6.4c4.8,4.8,4,7.2,1.6,8.8
	S166,432.8,161.2,428z"/>
<path style="fill:#EF6597;" d="M170,429.6c-2.4,2.4-4,3.2-8.8-1.6c-4.8-4.8-8-11.2-6.4-13.6"/>
<path style="fill:#F283B1;" d="M139.6,391.2c4.8,4.8,8,12,6.4,13.6c-2.4,2.4-8.8-1.6-13.6-6.4c-4.8-4.8-4-7.2-1.6-8.8
	S134.8,386.4,139.6,391.2z"/>
<path style="fill:#EF6597;" d="M130,389.6c2.4-2.4,4-3.2,8.8,1.6c4.8,4.8,8,12,6.4,13.6"/>
<circle style="fill:#F7C90B;" cx="150" cy="409.6" r="8.8"/>
<path style="fill:#F9A908;" d="M156.4,403.2c3.2,3.2,3.2,8.8,0,12.8c-3.2,3.2-8.8,3.2-12.8,0"/>
<path style="fill:#FFFEEE;" d="M249.2,17.6c46.4,0,84.8,33.6,88.8,77.6c0-3.2,0.8-5.6,0.8-8.8c0-48-40-86.4-89.6-86.4
	s-89.6,38.4-89.6,86.4c0,3.2,0,6.4,0.8,8.8C164.4,52,202.8,17.6,249.2,17.6z"/>
<path style="fill:#EAE7C7;" d="M249.2,17.6c46.4,0,84.8,33.6,88.8,77.6c0-3.2,0.8-5.6,0.8-8.8c0-48-40-86.4-89.6-86.4"/>
<path style="fill:#FFFEEE;" d="M249.2,360.8c-29.6,0-53.6-21.6-56.8-49.6c0,1.6,0,4,0,5.6c0,30.4,25.6,55.2,56.8,55.2
	s56.8-24.8,56.8-55.2c0-1.6,0-4,0-5.6C302.8,339.2,278.8,360.8,249.2,360.8z"/>
<path style="fill:#EAE7C7;" d="M249.2,372c31.2,0,56.8-24.8,56.8-55.2c0-1.6,0-4,0-5.6c-3.2,28-27.2,49.6-56.8,49.6"/>
<path style="fill:#FFFEEE;" d="M249.2,328.8c-26.4,0-48-19.2-51.2-43.2c0,1.6,0,3.2,0,4.8c0,26.4,23.2,48,51.2,48s51.2-21.6,51.2-48
	c0-1.6,0-3.2,0-4.8C297.2,309.6,275.6,328.8,249.2,328.8z"/>
<path style="fill:#EAE7C7;" d="M249.2,339.2c28,0,51.2-21.6,51.2-48c0-1.6,0-3.2,0-4.8c-2.4,24-24.8,43.2-51.2,43.2"/>
<g>
	<polygon style="fill:#D65483;" points="337.2,31.2 337.2,18.4 316.4,18.4 316.4,42.4 329.2,42.4 	"/>
	<rect x="305.2" y="10.4" style="fill:#D65483;" width="24" height="24"/>
	<polygon style="fill:#D65483;" points="321.2,2.4 310,3.2 298.8,14.4 297.2,26.4 321.2,26.4 	"/>
</g>
<path style="fill:#EA7D9F;" d="M337.2,34.4l-3.2-12l-8.8-0.8l0.8-7.2l-8-1.6V6.4l-4.8-0.8V0.8L302,10.4c-8,8-8.8,20.8-0.8,28.8
	L302,40c8,8,20,9.6,28,1.6l9.6-7.2H337.2z"/>
<g>
	<rect x="327.6" y="22.4" style="fill:#F4AEC7;" width="5.6" height="2.4"/>
	<rect x="319.6" y="14.4" style="fill:#F4AEC7;" width="5.6" height="2.4"/>
	<path style="fill:#F4AEC7;" d="M304.4,12l8.8-6.4V0.8L302,10.4c-8,8-8.8,20.8-0.8,28.8L302,40c0,0,0.8,0,0.8,0.8
		C295.6,32,296.4,20,304.4,12z"/>
	<rect x="311.6" y="6.4" style="fill:#F4AEC7;" width="5.6" height="2.4"/>
</g>
<g>
	<polygon style="fill:#D65483;" points="335.6,53.6 341.2,46.4 328.4,36.8 318.8,50.4 326.8,55.2 	"/>
	
		<rect x="320.451" y="31.734" transform="matrix(-0.8115 -0.5843 0.5843 -0.8115 571.7795 263.8983)" style="fill:#D65483;" width="16" height="16"/>
	<polygon style="fill:#D65483;" points="338.8,29.6 330.8,24 322,25.6 316.4,33.6 329.2,43.2 	"/>
</g>
<path style="fill:#EA7D9F;" d="M333.2,52l3.2-4.8l-4.8-3.2l3.2-4.8L330,36l3.2-4.8l-4-4l2.4-3.2l-9.6,1.6c-8,1.6-13.6,8.8-12,16.8
	v0.8c1.6,8,8.8,13.6,16.8,12l9.6-1.6L333.2,52z"/>
<g>
	
		<rect x="332.518" y="45.51" transform="matrix(0.8104 0.5859 -0.5859 0.8104 90.5611 -187.2107)" style="fill:#F4AEC7;" width="4" height="1.6"/>
	
		<rect x="331.409" y="37.491" transform="matrix(0.8113 0.5847 -0.5847 0.8113 85.313 -187.7097)" style="fill:#F4AEC7;" width="4" height="1.6"/>
	<polygon style="fill:#F4AEC7;" points="333.2,53.6 334,54.4 336.4,53.6 334.8,52.8 	"/>
	<path style="fill:#F4AEC7;" d="M322.8,28l7.2-1.6l1.6-2.4l-9.6,1.6c-8,1.6-13.6,8.8-12,16.8v0.8c0,0,0,0,0,0.8
		C310,36,314.8,28.8,322.8,28z"/>
	
		<rect x="329.809" y="28.995" transform="matrix(0.8104 0.5859 -0.5859 0.8104 80.3711 -188.7548)" style="fill:#F4AEC7;" width="4" height="1.6"/>
</g>
<circle style="fill:#B5750F;" cx="249.2" cy="360.8" r="18.4"/>
<circle style="fill:#DD981D;" cx="249.2" cy="358.4" r="18.4"/>
<path style="fill:#CE8106;" d="M249.2,340c10.4,0,18.4,8,18.4,18.4s-8,18.4-18.4,18.4"/>
<circle style="fill:#EFB65B;" cx="249.2" cy="358.4" r="12"/>
<path style="fill:#E2A750;" d="M257.2,350.4c4.8,4.8,4.8,12,0,16.8s-12,4.8-16.8,0"/>
<g>
	
		<rect x="242.835" y="383.99" transform="matrix(-0.7074 0.7068 -0.7068 -0.7074 701.4758 490.3927)" style="fill:#FFFEEE;" width="12.8" height="12.8"/>
	<circle style="fill:#FFFEEE;" cx="249.2" cy="404.8" r="4"/>
	<circle style="fill:#FFFEEE;" cx="249.2" cy="416" r="4"/>
	<circle style="fill:#FFFEEE;" cx="249.2" cy="427.2" r="4"/>
</g>
<g>
	<circle style="fill:#EAE7C7;" cx="272.4" cy="17.6" r="2.4"/>
	<circle style="fill:#EAE7C7;" cx="282" cy="17.6" r="2.4"/>
	<circle style="fill:#EAE7C7;" cx="291.6" cy="17.6" r="2.4"/>
	<circle style="fill:#EAE7C7;" cx="226" cy="26.4" r="2.4"/>
	<circle style="fill:#EAE7C7;" cx="235.6" cy="26.4" r="2.4"/>
	<circle style="fill:#EAE7C7;" cx="245.2" cy="26.4" r="2.4"/>
	<circle style="fill:#EAE7C7;" cx="253.2" cy="26.4" r="2.4"/>
	<circle style="fill:#EAE7C7;" cx="262.8" cy="26.4" r="2.4"/>
	<circle style="fill:#EAE7C7;" cx="272.4" cy="26.4" r="2.4"/>
	<circle style="fill:#EAE7C7;" cx="206.8" cy="36" r="2.4"/>
	<circle style="fill:#EAE7C7;" cx="216.4" cy="36" r="2.4"/>
	<circle style="fill:#EAE7C7;" cx="226" cy="36" r="2.4"/>
	<circle style="fill:#EAE7C7;" cx="235.6" cy="36" r="2.4"/>
	<circle style="fill:#EAE7C7;" cx="245.2" cy="36" r="2.4"/>
	<circle style="fill:#EAE7C7;" cx="253.2" cy="36" r="2.4"/>
	<circle style="fill:#EAE7C7;" cx="262.8" cy="36" r="2.4"/>
	<circle style="fill:#EAE7C7;" cx="272.4" cy="36" r="2.4"/>
	<circle style="fill:#EAE7C7;" cx="282" cy="36" r="2.4"/>
	<circle style="fill:#EAE7C7;" cx="291.6" cy="36" r="2.4"/>
	<circle style="fill:#EAE7C7;" cx="206.8" cy="44.8" r="2.4"/>
	<circle style="fill:#EAE7C7;" cx="216.4" cy="44.8" r="2.4"/>
	<circle style="fill:#EAE7C7;" cx="226" cy="44.8" r="2.4"/>
	<circle style="fill:#EAE7C7;" cx="235.6" cy="44.8" r="2.4"/>
	<circle style="fill:#EAE7C7;" cx="245.2" cy="44.8" r="2.4"/>
	<circle style="fill:#EAE7C7;" cx="253.2" cy="44.8" r="2.4"/>
	<circle style="fill:#EAE7C7;" cx="262.8" cy="44.8" r="2.4"/>
	<circle style="fill:#EAE7C7;" cx="272.4" cy="44.8" r="2.4"/>
	<circle style="fill:#EAE7C7;" cx="282" cy="44.8" r="2.4"/>
	<circle style="fill:#EAE7C7;" cx="291.6" cy="44.8" r="2.4"/>
	<circle style="fill:#EAE7C7;" cx="206.8" cy="54.4" r="2.4"/>
	<circle style="fill:#EAE7C7;" cx="216.4" cy="54.4" r="2.4"/>
	<circle style="fill:#EAE7C7;" cx="226" cy="54.4" r="2.4"/>
	<circle style="fill:#EAE7C7;" cx="235.6" cy="54.4" r="2.4"/>
	<circle style="fill:#EAE7C7;" cx="245.2" cy="54.4" r="2.4"/>
	<circle style="fill:#EAE7C7;" cx="253.2" cy="54.4" r="2.4"/>
	<circle style="fill:#EAE7C7;" cx="262.8" cy="54.4" r="2.4"/>
	<circle style="fill:#EAE7C7;" cx="272.4" cy="54.4" r="2.4"/>
	<circle style="fill:#EAE7C7;" cx="282" cy="54.4" r="2.4"/>
	<circle style="fill:#EAE7C7;" cx="291.6" cy="54.4" r="2.4"/>
	<circle style="fill:#EAE7C7;" cx="206.8" cy="64" r="2.4"/>
	<circle style="fill:#EAE7C7;" cx="216.4" cy="64" r="2.4"/>
	<circle style="fill:#EAE7C7;" cx="226" cy="64" r="2.4"/>
	<circle style="fill:#EAE7C7;" cx="235.6" cy="64" r="2.4"/>
	<circle style="fill:#EAE7C7;" cx="245.2" cy="64" r="2.4"/>
	<circle style="fill:#EAE7C7;" cx="253.2" cy="64" r="2.4"/>
	<circle style="fill:#EAE7C7;" cx="262.8" cy="64" r="2.4"/>
	<circle style="fill:#EAE7C7;" cx="272.4" cy="64" r="2.4"/>
	<circle style="fill:#EAE7C7;" cx="282" cy="64" r="2.4"/>
	<circle style="fill:#EAE7C7;" cx="291.6" cy="64" r="2.4"/>
	<circle style="fill:#EAE7C7;" cx="206.8" cy="72.8" r="2.4"/>
	<circle style="fill:#EAE7C7;" cx="216.4" cy="72.8" r="2.4"/>
	<circle style="fill:#EAE7C7;" cx="226" cy="72.8" r="2.4"/>
	<circle style="fill:#EAE7C7;" cx="235.6" cy="72.8" r="2.4"/>
	<circle style="fill:#EAE7C7;" cx="245.2" cy="72.8" r="2.4"/>
	<circle style="fill:#EAE7C7;" cx="253.2" cy="72.8" r="2.4"/>
	<circle style="fill:#EAE7C7;" cx="262.8" cy="72.8" r="2.4"/>
	<circle style="fill:#EAE7C7;" cx="272.4" cy="72.8" r="2.4"/>
	<circle style="fill:#EAE7C7;" cx="282" cy="72.8" r="2.4"/>
	<circle style="fill:#EAE7C7;" cx="291.6" cy="72.8" r="2.4"/>
	<circle style="fill:#EAE7C7;" cx="206.8" cy="82.4" r="2.4"/>
	<circle style="fill:#EAE7C7;" cx="216.4" cy="82.4" r="2.4"/>
	<circle style="fill:#EAE7C7;" cx="226" cy="82.4" r="2.4"/>
	<circle style="fill:#EAE7C7;" cx="235.6" cy="82.4" r="2.4"/>
	<circle style="fill:#EAE7C7;" cx="245.2" cy="82.4" r="2.4"/>
	<circle style="fill:#EAE7C7;" cx="253.2" cy="82.4" r="2.4"/>
	<circle style="fill:#EAE7C7;" cx="262.8" cy="82.4" r="2.4"/>
	<circle style="fill:#EAE7C7;" cx="272.4" cy="82.4" r="2.4"/>
	<circle style="fill:#EAE7C7;" cx="282" cy="82.4" r="2.4"/>
	<circle style="fill:#EAE7C7;" cx="291.6" cy="82.4" r="2.4"/>
	<circle style="fill:#EAE7C7;" cx="206.8" cy="91.2" r="2.4"/>
	<circle style="fill:#EAE7C7;" cx="216.4" cy="91.2" r="2.4"/>
	<circle style="fill:#EAE7C7;" cx="226" cy="91.2" r="2.4"/>
	<circle style="fill:#EAE7C7;" cx="235.6" cy="91.2" r="2.4"/>
	<circle style="fill:#EAE7C7;" cx="245.2" cy="91.2" r="2.4"/>
	<circle style="fill:#EAE7C7;" cx="253.2" cy="91.2" r="2.4"/>
	<circle style="fill:#EAE7C7;" cx="262.8" cy="91.2" r="2.4"/>
	<circle style="fill:#EAE7C7;" cx="272.4" cy="91.2" r="2.4"/>
	<circle style="fill:#EAE7C7;" cx="282" cy="91.2" r="2.4"/>
	<circle style="fill:#EAE7C7;" cx="291.6" cy="91.2" r="2.4"/>
</g>
</svg>